<?xml version="1.0" encoding="utf-8"?><!-- Uploaded to: SVG Repo, www.svgrepo.com, Generator: SVG Repo Mixer Tools -->
<svg fill="#000000" width="800px" height="800px" viewBox="0 0 24 24" id="exchange-4" data-name="Flat Color" xmlns="http://www.w3.org/2000/svg" class="icon flat-color"><path id="secondary" d="M14,21a1,1,0,0,1-1-1V4a1,1,0,0,1,.62-.92,1,1,0,0,1,1.09.21l3,3a1,1,0,0,1-1.42,1.42L15,6.41V20A1,1,0,0,1,14,21Z" style="fill: rgb(44, 169, 188);"></path><path id="primary" d="M10,21a1,1,0,0,1-.71-.29l-3-3a1,1,0,0,1,1.42-1.42L9,17.59V4a1,1,0,0,1,2,0V20a1,1,0,0,1-.62.92A.84.84,0,0,1,10,21Z" style="fill: rgb(0, 0, 0);"></path></svg>